<svg width="19" height="18" viewBox="0 0 19 18" fill="none" xmlns="http://www.w3.org/2000/svg">
	<g clip-path="url(#clip0_3680_113412)">
		<path d="M9.5 18C14.4706 18 18.5 13.9706 18.5 9C18.5 4.02944 14.4706 0 9.5 0C4.52944 0 0.5 4.02944 0.5 9C0.5 13.9706 4.52944 18 9.5 18Z" fill="#26A17B" />
		<path fill-rule="evenodd" clip-rule="evenodd" d="M10.4124 9.87975V9.87862C10.3505 9.88313 10.0316 9.90225 9.32 9.90225C8.75187 9.90225 8.35194 9.88538 8.21131 9.87862V9.88031C6.02431 9.78413 4.39194 9.40331 4.39194 8.94769C4.39194 8.49262 6.02431 8.11181 8.21131 8.01394V9.50119C8.35419 9.51131 8.76369 9.5355 9.32956 9.5355C10.0085 9.5355 10.3488 9.50738 10.4124 9.50175V8.01506C12.5949 8.11238 14.2233 8.49319 14.2233 8.94769C14.2233 9.40331 12.5949 9.783 10.4124 9.87975ZM10.4124 7.86038V6.5295H13.4577V4.5H5.16594V6.5295H8.21131V7.85981C5.73631 7.97344 3.875 8.46394 3.875 9.05119C3.875 9.63844 5.73631 10.1284 8.21131 10.2426V14.5074H10.4124V10.2414C12.8834 10.1278 14.7402 9.63787 14.7402 9.05119C14.7402 8.4645 12.8834 7.97456 10.4124 7.86038Z" fill="white" />
	</g>
	<defs>
		<clipPath id="clip0_3680_113412">
			<rect width="18" height="18" fill="white" transform="translate(0.5)" />
		</clipPath>
	</defs>
</svg>
